<?xml version="1.0" standalone="no"?>
<!DOCTYPE svg PUBLIC "-//W3C//DTD SVG 20010904//EN"
 "http://www.w3.org/TR/2001/REC-SVG-20010904/DTD/svg10.dtd">
<svg version="1.0" xmlns="http://www.w3.org/2000/svg"
 width="512.000000pt" height="512.000000pt" viewBox="0 0 512.000000 512.000000"
 preserveAspectRatio="xMidYMid meet">
<metadata>
Created by potrace 1.14, written by Peter Selinger 2001-2017
</metadata>
<g transform="translate(0.000000,512.000000) scale(0.100000,-0.100000)"
fill="#000000" stroke="none">
<path d="M2365 5108 c-169 -11 -345 -40 -492 -79 -40 -11 -80 -22 -90 -24 -37
-7 -211 -75 -296 -114 -161 -74 -391 -222 -523 -337 -12 -11 -46 -39 -75 -64
-74 -61 -267 -254 -316 -315 -212 -266 -377 -583 -471 -905 -70 -244 -96 -436
-97 -715 0 -93 3 -204 7 -245 22 -231 99 -534 193 -754 34 -79 124 -255 159
-311 191 -300 339 -468 607 -690 13 -11 47 -36 74 -55 28 -19 52 -38 55 -41 3
-3 50 -34 105 -68 328 -206 750 -346 1137 -378 154 -12 445 -6 548 12 14 2 68
11 120 20 757 128 1443 629 1806 1319 56 107 132 276 138 306 1 3 7 19 13 35
16 40 71 223 77 255 3 14 7 36 11 50 62 281 74 615 34 900 -6 41 -12 84 -14
95 -13 79 -17 101 -21 106 -2 3 -6 19 -8 36 -23 129 -107 357 -201 548 -70
142 -187 336 -206 343 -5 2 -9 8 -9 13 0 19 -164 214 -265 314 -329 331 -754
570 -1205 678 -107 26 -123 29 -244 47 -160 24 -370 31 -551 18z"/>
</g>
</svg>
